<svg width="200" height="133" viewBox="0 0 200 133" fill="none" xmlns="http://www.w3.org/2000/svg">
<g clip-path="url(#clip0)">
<path d="M44.2391 24.7285C43.4524 24.7285 42.6721 24.8704 41.9357 25.1474V107.222C42.6721 107.499 43.4524 107.641 44.2391 107.641H53.0047V24.7285H44.2391Z" fill="#FFCC00"/>
<path d="M74.0173 24.7285H62.9484V107.64H74.0173V24.7285Z" fill="#FFCC00"/>
<path d="M95.0284 24.7285H83.9595V107.64H95.0284V24.7285Z" fill="#FFCC00"/>
<path d="M116.04 24.7285H104.972V107.64H116.04V24.7285Z" fill="#EF3C24"/>
<path d="M137.052 24.7285H125.983V107.64H137.052V24.7285Z" fill="#FFCC00"/>
<path d="M155.761 24.7285H146.995V30.8677C147.17 30.7025 147.389 30.592 147.625 30.5499C147.862 30.5078 148.106 30.536 148.326 30.6309C148.547 30.7259 148.735 30.8834 148.867 31.0841C148.999 31.2848 149.07 31.5198 149.07 31.76C149.07 32.0003 148.999 32.2353 148.867 32.436C148.735 32.6367 148.547 32.7942 148.326 32.8892C148.106 32.9841 147.862 33.0123 147.625 32.9702C147.389 32.9281 147.17 32.8176 146.995 32.6524V107.636H155.761C156.548 107.636 157.328 107.494 158.064 107.217V25.1422C157.328 24.867 156.547 24.7268 155.761 24.7285ZM153.182 32.9885C152.939 32.9888 152.701 32.9169 152.498 32.7819C152.296 32.647 152.138 32.455 152.045 32.2304C151.952 32.0057 151.928 31.7585 151.975 31.5199C152.022 31.2814 152.139 31.0622 152.311 30.8903C152.483 30.7183 152.702 30.6012 152.941 30.5538C153.18 30.5064 153.427 30.5309 153.652 30.6241C153.876 30.7172 154.068 30.875 154.203 31.0773C154.338 31.2797 154.41 31.5175 154.41 31.7607C154.41 32.0863 154.28 32.3987 154.05 32.6289C153.82 32.8592 153.507 32.9885 153.182 32.9885Z" fill="#FFCC00"/>
<path d="M155.761 23.5473H116.04V6.89072L104.972 3.47641V23.5473H95.028V0.412717L93.7975 0.0332031L83.9591 6.81324V23.5473H74.0168V13.6642L62.9479 21.2926V23.5473H44.2388C42.1884 23.5508 40.2231 24.3668 38.7733 25.8166C37.3235 27.2664 36.5075 29.2317 36.504 31.2821V101.089C36.5075 103.139 37.3235 105.105 38.7733 106.554C40.2231 108.004 42.1884 108.82 44.2388 108.824H46.9124L41.9354 115.841V126.388L53.0044 120.758V108.824H62.9479V115.701L74.0168 110.071V108.824H107.06L116.04 128.619V108.824H125.983V129.027L137.052 128.569V108.824H146.995V128.157L158.064 127.697V108.471C159.636 107.977 161.01 106.996 161.987 105.668C162.963 104.341 163.491 102.737 163.493 101.089V31.2821C163.489 29.2322 162.674 27.2673 161.225 25.8175C159.775 24.3678 157.811 23.5515 155.761 23.5473ZM162.311 101.089C162.31 102.827 161.62 104.493 160.391 105.722C159.162 106.951 157.496 107.641 155.758 107.642H44.2388C42.501 107.641 40.8347 106.951 39.606 105.722C38.3772 104.493 37.6866 102.827 37.6859 101.089V31.2821C37.6866 29.5443 38.3772 27.878 39.606 26.6493C40.8347 25.4205 42.501 24.7299 44.2388 24.7292H155.761C157.498 24.7299 159.165 25.4205 160.394 26.6493C161.622 27.878 162.313 29.5443 162.314 31.2821L162.311 101.089Z" fill="black"/>
<path d="M142.494 30.5322C142.25 30.5322 142.013 30.6043 141.811 30.7394C141.608 30.8744 141.451 31.0664 141.358 31.291C141.265 31.5156 141.241 31.7627 141.288 32.0012C141.335 32.2396 141.452 32.4586 141.624 32.6305C141.796 32.8024 142.015 32.9195 142.254 32.9669C142.492 33.0143 142.739 32.99 142.964 32.897C143.188 32.8039 143.38 32.6464 143.516 32.4443C143.651 32.2421 143.723 32.0045 143.723 31.7614C143.723 31.5999 143.691 31.44 143.629 31.2908C143.568 31.1416 143.477 31.006 143.363 30.8919C143.249 30.7777 143.113 30.6871 142.964 30.6254C142.815 30.5637 142.655 30.5321 142.494 30.5322Z" fill="black"/>
<path d="M146.996 32.6522C147.201 32.8449 147.466 32.961 147.747 32.9809C148.028 33.0007 148.307 32.9232 148.537 32.7613C148.768 32.5994 148.935 32.363 149.011 32.0921C149.088 31.8211 149.068 31.5321 148.957 31.2737C148.845 31.0154 148.647 30.8035 148.397 30.6738C148.147 30.5441 147.861 30.5045 147.585 30.5616C147.309 30.6188 147.062 30.7693 146.884 30.9877C146.706 31.2061 146.609 31.479 146.61 31.7606C146.61 31.9277 146.644 32.093 146.71 32.2463C146.777 32.3997 146.874 32.5378 146.996 32.6522Z" fill="black"/>
<path d="M153.182 30.5322C152.938 30.532 152.701 30.6038 152.498 30.7387C152.296 30.8736 152.138 31.0655 152.045 31.2901C151.952 31.5147 151.927 31.7619 151.975 32.0004C152.022 32.2389 152.139 32.458 152.311 32.6301C152.483 32.8021 152.702 32.9193 152.94 32.9668C153.179 33.0144 153.426 32.9901 153.65 32.8971C153.875 32.8041 154.067 32.6466 154.202 32.4444C154.337 32.2422 154.41 32.0045 154.41 31.7614C154.41 31.6 154.378 31.4402 154.316 31.2911C154.255 31.142 154.164 31.0065 154.05 30.8923C153.936 30.7782 153.801 30.6876 153.652 30.6258C153.503 30.564 153.343 30.5322 153.182 30.5322Z" fill="black"/>
<path d="M10.9809 57.1016L-0.0880127 64.7286L10.9809 74.0353V57.1016Z" fill="black"/>
<path d="M31.9937 129.863L30.2393 132.337L31.9937 131.446V129.863Z" fill="black"/>
<path d="M31.9935 42.623L20.9246 50.2501V82.3959L31.9935 91.7025V42.623Z" fill="black"/>
<path d="M125.983 18.8848L134.357 12.5368L125.983 9.95508V18.8848Z" fill="black"/>
<path d="M168.007 127.284L179.075 126.826V83.4131L174.299 73.6876L179.075 66.4269V39.5273L168.007 40.0145V127.284Z" fill="black"/>
<path d="M189.019 126.413L199.971 125.959L189.019 103.658V126.413Z" fill="black"/>
<path d="M189.019 39.0884V51.3129L197.3 38.7246L189.019 39.0884Z" fill="black"/>
</g>
<defs>
<clipPath id="clip0">
<rect width="200" height="132.37" fill="white"/>
</clipPath>
</defs>
</svg>
