<svg width="16" height="16" viewBox="0 0 16 16" fill="none" xmlns="http://www.w3.org/2000/svg">
<g clip-path="url(#clip0)">
<path d="M8.03196 0C5.33356 0 2.89215 2.18153 2.89215 4.87636C2.89215 7.57118 5.12154 10.7857 8.03196 15.399C10.9424 10.7857 13.1718 7.57118 13.1718 4.87636C13.1718 2.18153 10.7304 0 8.03196 0ZM8.03196 8.56571C6.13023 8.56571 4.59471 7.03222 4.59471 5.13301C4.59471 3.23379 6.13023 1.70031 8.03196 1.70031C9.93369 1.70031 11.4692 3.23379 11.4692 5.13301C11.4692 7.03222 9.93369 8.56571 8.03196 8.56571Z" fill="black"/>
<path d="M8.032 6.8462C8.9794 6.8462 9.74741 6.0792 9.74741 5.13306C9.74741 4.18692 8.9794 3.41992 8.032 3.41992C7.08461 3.41992 6.31659 4.18692 6.31659 5.13306C6.31659 6.0792 7.08461 6.8462 8.032 6.8462Z" fill="black"/>
</g>
<defs>
<clipPath id="clip0">
<rect width="15.4194" height="15.399" fill="white" transform="translate(0.322266)"/>
</clipPath>
</defs>
</svg>
