<svg width="200" height="133" viewBox="0 0 200 133" fill="none" xmlns="http://www.w3.org/2000/svg">
<g clip-path="url(#clip0)">
<path d="M154.752 103.679L154.692 103.153H143.832L143.307 103.679H154.752Z" fill="black"/>
<path d="M59.304 83.4724V82.4219L58.7787 82.9472V83.4724H58.2535L57.7282 83.9977H58.7787V103.153H39.6231V102.103L39.0979 102.628V103.153H38.5726L38.0473 103.679H39.0979V106.568L39.6231 106.927V103.679H58.7787V109.551L59.304 109.026V103.679H61.4839L61.5194 103.153H59.304V83.9977H77.0322C76.9009 83.8257 76.759 83.6497 76.6251 83.4724H59.304Z" fill="black"/>
<path d="M185.816 64.3163L185.584 63.791H183.194L182.669 64.3163H185.816Z" fill="black"/>
<path d="M58.7788 44.6371V52.1696L59.3041 51.6443V44.6371H66.3113L66.8366 44.1118H59.3041V30.9903L58.7788 30.5977V44.1118H44.9915L44.4662 44.6371H58.7788Z" fill="black"/>
<path d="M202.964 103.153H197.066V102.546L196.541 103.071V103.153H196.46L195.934 103.678H196.541V106.015L197.066 106.201V103.678H203.196L202.964 103.153Z" fill="black"/>
<path d="M194.274 83.4716H177.387V69.5977L176.861 70.1229V83.4716H163.513L162.987 83.9969H176.861V99.0369L177.387 99.2234V83.9969H194.505L194.274 83.4716Z" fill="black"/>
<path d="M157.181 44.1116H150.246L149.72 44.6369H157.181V63.7925H139.382C139.382 63.9672 139.382 64.1418 139.375 64.3178H157.181V68.5292L157.706 68.0039V64.3178H161.392L161.917 63.7925H157.706V44.6369H170.679L170.093 44.1116H157.706V36.6514L157.181 37.1766V44.1116Z" fill="black"/>
<path d="M157.181 92.0606L157.706 92.2458V89.2793L157.181 89.8046V92.0606Z" fill="black"/>
<path d="M137.499 115.439H138.025V108.96L137.499 109.485V115.439Z" fill="black"/>
<path d="M138.025 73.123C137.863 73.6781 137.688 74.2283 137.5 74.7737V83.4724H133.005C132.873 83.6483 132.75 83.8243 132.621 83.9976H137.5V88.2091L138.025 87.6838V83.9976H141.712L142.238 83.4724H138.025V73.123Z" fill="black"/>
<path d="M118.345 103.678H122.031L122.557 103.153H118.345V95.207C118.171 95.2806 117.996 95.3515 117.82 95.4211V103.16H98.6644V100.707L98.0485 103.678H98.1391V115.439H98.6644V103.678H117.82V107.89L118.345 107.365V103.678Z" fill="black"/>
<path d="M117.82 24.4254H117.295L116.769 24.9507H117.82V31.648L118.345 31.862V24.9507H137.5V30.8233L138.025 30.298V24.9507H143.372L143.898 24.4254H138.025V15.3289L137.5 14.8574V24.4254H118.345V23.3748L117.82 23.9001V24.4254Z" fill="black"/>
<path d="M78.985 86.1755C78.8046 86.0004 78.6296 85.8205 78.4597 85.6357V89.8695L78.985 89.3442V86.1755Z" fill="black"/>
<path d="M39.623 64.3163H46.6315L47.1568 63.791H39.623V49.4785L39.0977 50.0038V63.791H25.3104L24.7852 64.3163H39.0977V71.8501L39.623 71.3249V64.3163Z" fill="black"/>
<path d="M19.9436 83.9973H26.9508L27.4761 83.472H19.9436V79.623L19.4183 81.4484V83.472H18.8353L18.6843 83.9973H19.4183V91.5311L19.9436 91.0058V83.9973Z" fill="black"/>
<path d="M39.0979 50.004L39.6232 49.4787L44.4663 44.6369L44.9916 44.1116L58.6225 30.4806L38.4387 15.3828L24.1747 64.9284L24.7854 64.3165L25.3107 63.7912L39.0979 50.004Z" fill="#FFCC00"/>
<path d="M132.621 83.9976C132.752 83.8242 132.884 83.6483 133.005 83.4723C134.912 80.8032 136.426 77.8737 137.5 74.7737C137.689 74.2283 137.864 73.678 138.025 73.123C138.856 70.2592 139.31 67.2992 139.375 64.318C139.375 64.142 139.375 63.9674 139.381 63.7927C139.381 63.706 139.381 63.6194 139.381 63.5301C139.383 60.941 139.093 58.3601 138.516 55.836L149.718 44.6345L150.243 44.1092L157.178 37.1742L157.703 36.6489L159.631 34.7211L145.915 22.4099L143.897 24.4257L143.372 24.9509L138.025 30.2983L137.5 30.8236L129.201 39.1335C126.08 36.0409 122.395 33.5749 118.345 31.8689L117.82 31.6548C115.892 30.8811 113.896 30.2855 111.859 29.8754L116.773 24.9509L117.299 24.4257L117.824 23.9004L118.349 23.3751L131.899 9.83077L123.238 2.05664L106.831 29.2398C106.239 29.2092 105.644 29.1939 105.045 29.1939C99.4797 29.1901 93.9969 30.5407 89.07 33.1292C84.1431 35.7177 79.9201 39.4663 76.7655 44.0514L71.1188 39.8282L66.8417 44.1118L66.3164 44.6371L59.3039 51.6443L58.7786 52.1696L47.1568 63.7927L46.6316 64.318L39.623 71.3252L39.0977 71.8505L27.4759 83.4723L26.9507 83.9976L19.9434 91.0048L19.4182 91.5301L15.3407 95.601L12.2376 106.388L3.66241 123.538L31.8843 101.625L36.7694 104.967L38.0577 103.678L38.583 103.153L39.1082 102.628L39.6335 102.103L57.7425 83.9936L58.2678 83.4683L58.7931 82.9431L59.3184 82.4178L71.0137 70.7225C70.8447 69.9056 70.7047 69.0801 70.5935 68.2458C69.778 62.1013 70.6263 56.0869 72.9835 51.3055C76.5291 44.1302 83.0951 40.3863 91.4681 40.7605H91.5311C104.481 42.9523 115.132 58.4375 113.435 72.645C113.279 73.8883 113.027 75.1176 112.681 76.3219C111.09 81.6207 106.903 85.3685 102.005 85.8689C98.0524 86.2733 94.4766 84.4664 92.2875 81.01C91.8147 81.6798 91.2028 82.4125 90.3597 82.9575C87.6506 84.7106 84.0393 84.3377 80.6972 81.9595C78.0354 80.0658 75.8633 77.1453 74.579 73.7362C73.124 69.8728 72.8981 65.6154 73.9224 61.4263C75.1778 56.3048 78.9546 52.4821 83.321 51.9253C86.7143 51.492 89.8121 53.0836 91.9881 56.3245C92.1339 55.5629 92.2901 54.8065 92.4543 54.0632L92.558 53.5957L93.0321 53.6561C95.2488 53.9358 97.5863 54.1394 99.9776 54.2615L100.525 54.2891L100.474 54.8341C99.9211 60.75 99.623 67.0061 99.6125 72.926C99.6125 73.7664 99.6125 74.6082 99.6243 75.4211C99.7018 76.4861 99.8016 77.8058 100.754 78.4703C101.761 79.1729 102.657 79.2241 103.492 78.6266C106.052 76.7881 107.349 69.3213 105.253 62.0645C103.983 57.6666 101.697 53.8754 98.6421 51.1006C95.7859 48.5071 92.4438 46.9326 88.9743 46.5465C86.2518 46.2257 83.4957 46.7289 81.0623 47.991C78.4648 49.3554 76.3348 51.5301 74.7235 54.4572C72.5015 58.4979 71.6965 63.3068 72.3952 68.3626C73.0518 73.1269 75.0216 77.706 77.9539 81.2569C82.9113 87.2701 89.7202 89.4447 96.6368 87.2254L97.0308 87.0941L97.2435 87.4565C98.1785 89.0494 98.3715 89.3436 99.6204 91.2517L100.005 91.8387L99.3354 92.0462C97.5985 92.5774 95.7926 92.8486 93.9763 92.8512C88.7865 92.8512 84.143 90.6187 80.6 87.6588L80.6276 87.6863L78.9717 89.3423L78.4464 89.8676L76.9533 91.3699L84.4385 91.0048C89.1574 94.5409 94.7065 96.8038 100.552 97.5761C106.398 98.3484 112.345 97.604 117.82 95.4145C117.996 95.3449 118.171 95.274 118.345 95.2005C124.019 92.8088 128.949 88.9403 132.621 83.9976ZM131.159 54.4204L131.518 55.9306C131.594 56.2516 131.54 56.5899 131.368 56.8714C131.196 57.1529 130.919 57.3547 130.599 57.4329C130.504 57.4552 130.407 57.4667 130.31 57.467C130.028 57.4685 129.753 57.3745 129.531 57.2002C129.309 57.0259 129.153 56.7816 129.087 56.5071L128.729 54.9969C128.691 54.8375 128.685 54.6721 128.711 54.5104C128.737 54.3486 128.795 54.1935 128.88 54.054C128.966 53.9145 129.079 53.7933 129.212 53.6973C129.345 53.6013 129.495 53.5325 129.655 53.4946C129.814 53.4567 129.979 53.4507 130.141 53.4767C130.303 53.5028 130.458 53.5604 130.597 53.6464C130.737 53.7323 130.858 53.8449 130.954 53.9778C131.05 54.1106 131.119 54.261 131.157 54.4204H131.159ZM110.017 35.6903C109.86 35.6453 109.712 35.5697 109.584 35.4678C109.456 35.366 109.349 35.2399 109.27 35.0967C109.19 34.9536 109.14 34.7962 109.121 34.6335C109.102 34.4708 109.116 34.306 109.161 34.1486C109.206 33.9911 109.281 33.8441 109.383 33.7158C109.485 33.5876 109.611 33.4807 109.754 33.4012C109.897 33.3217 110.055 33.2711 110.218 33.2525C110.38 33.2338 110.545 33.2474 110.702 33.2924C119.377 35.7704 124.373 40.8616 127.036 44.6962C127.581 45.4795 128.083 46.2914 128.541 47.1282C129.117 48.1819 129.618 49.275 130.041 50.3994C130.102 50.5536 130.132 50.7186 130.129 50.8846C130.126 51.0506 130.09 51.2143 130.023 51.3662C129.955 51.518 129.859 51.6549 129.738 51.7688C129.617 51.8828 129.475 51.9714 129.319 52.0297C129.164 52.0879 128.998 52.1145 128.832 52.1079C128.666 52.1013 128.503 52.0616 128.353 51.9912C128.203 51.9209 128.068 51.8212 127.956 51.698C127.845 51.5748 127.759 51.4307 127.704 51.274C127.323 50.2604 126.87 49.2752 126.349 48.3259C125.934 47.5672 125.479 46.8312 124.986 46.121C122.554 42.6187 117.983 37.9674 110.017 35.6903Z" fill="#FFCC00"/>
<path d="M52.5503 115.779L60.3192 121.1L61.2581 107.071L59.3041 109.025L58.7788 109.551L52.5503 115.779Z" fill="#FFCC00"/>
<path d="M176.861 70.1236L177.387 69.5984L182.668 64.3167L183.194 63.7914L184.852 62.1328L181.359 54.2221L176.156 49.5537L161.917 63.7914L161.392 64.3167L157.706 68.0041L157.181 68.5294L142.238 83.4723L141.712 83.9976L138.025 87.6837L137.5 88.209L122.557 103.153L122.032 103.678L118.345 107.365L117.82 107.89L110.271 115.439H131.546L137.5 109.485L138.025 108.96L143.307 103.678L143.832 103.153L153.568 93.4171L153.252 90.6673L155.515 91.4697L157.181 89.8045L157.706 89.2793L162.988 83.9976L163.513 83.4723L176.861 70.1236Z" fill="#FFCC00"/>
<path d="M196.541 103.071L197.066 102.546L200.972 98.6403L195.911 87.1787L182.17 100.919L194.368 105.244L195.934 103.678L196.46 103.152L196.541 103.071Z" fill="#FFCC00"/>
<path d="M87.1962 61.0634C85.6098 60.0562 83.7083 59.9669 82.2362 60.8309C80.1049 62.0772 78.8692 65.8474 79.3748 69.5992C80.0813 74.852 83.384 76.3136 84.8036 76.7036C86.2612 76.9242 87.4562 76.6799 88.3557 75.9774C89.8777 74.7955 90.3886 72.4317 90.5488 70.6681C90.9572 66.1691 89.7346 62.6681 87.1962 61.0634Z" fill="#FFCC00"/>
<path d="M124.986 46.1199C125.48 46.8306 125.935 47.567 126.349 48.3261C126.87 49.276 127.322 50.2616 127.703 51.2756C127.758 51.4322 127.844 51.5764 127.955 51.6996C128.067 51.8227 128.201 51.9224 128.352 51.9928C128.502 52.0632 128.665 52.1028 128.831 52.1094C128.997 52.116 129.162 52.0894 129.318 52.0312C129.473 51.973 129.616 51.8843 129.737 51.7704C129.857 51.6565 129.954 51.5196 130.021 51.3678C130.089 51.2159 130.125 51.0522 130.128 50.8862C130.131 50.7202 130.101 50.5552 130.039 50.401C129.617 49.2766 129.116 48.1835 128.54 47.1298C128.082 46.2929 127.579 45.4811 127.035 44.6977C124.372 40.8632 119.376 35.768 110.701 33.2939C110.544 33.249 110.379 33.2355 110.216 33.2543C110.054 33.273 109.896 33.3236 109.753 33.4032C109.61 33.4828 109.484 33.5898 109.382 33.718C109.281 33.8463 109.205 33.9934 109.16 34.1508C109.115 34.3083 109.102 34.473 109.121 34.6357C109.139 34.7983 109.19 34.9557 109.269 35.0988C109.349 35.2419 109.456 35.3679 109.584 35.4697C109.713 35.5714 109.86 35.6469 110.017 35.6918C117.983 37.9676 122.554 42.619 124.986 46.1199Z" fill="white"/>
<path d="M129.657 53.4939C129.498 53.5318 129.348 53.6006 129.215 53.6966C129.082 53.7926 128.969 53.9138 128.883 54.0533C128.797 54.1928 128.74 54.3479 128.714 54.5097C128.688 54.6715 128.694 54.8368 128.732 54.9962L129.088 56.5064C129.153 56.7794 129.308 57.0225 129.528 57.1967C129.748 57.3708 130.02 57.4658 130.301 57.4664C130.398 57.466 130.495 57.4546 130.59 57.4322C130.91 57.3541 131.187 57.1522 131.359 56.8707C131.532 56.5892 131.585 56.251 131.509 55.9299L131.151 54.4198C131.074 54.0995 130.875 53.8225 130.595 53.649C130.315 53.4755 129.978 53.4198 129.657 53.4939Z" fill="white"/>
<path d="M98.3652 91.2342C97.5221 89.9446 97.2411 89.5008 96.5622 88.3452C89.3541 90.4949 82.2996 88.1666 77.1505 81.921C76.2567 80.8328 75.4555 79.6719 74.7552 78.4502C75.7139 80.383 76.896 82.1967 78.2772 83.854C82.5268 88.9125 89.9844 93.4207 98.3652 91.2342Z" fill="black"/>
<path d="M80.5805 47.0613C83.1989 45.7002 86.1655 45.1559 89.0966 45.4986C96.9245 46.3693 103.665 52.7554 106.269 61.7691C107.292 65.3148 107.611 69.148 107.165 72.5689C106.734 75.8768 105.621 78.3955 104.11 79.4763C102.921 80.3286 101.518 80.2747 100.159 79.3279C98.7998 78.3811 98.6659 76.6306 98.5831 75.4776V75.4461C98.5726 74.6175 98.5687 73.7652 98.57 72.9143C98.5805 67.1441 98.8628 61.0574 99.3855 55.2714C97.329 55.1559 95.3146 54.9799 93.3868 54.7462C93.1662 55.7718 92.9626 56.8184 92.7788 57.8637L92.5162 59.3555L91.7926 58.0239C89.8228 54.3785 86.7893 52.5321 83.4525 52.9576C79.5129 53.4605 76.0986 56.9602 74.9416 61.6667C73.9659 65.6496 74.18 69.6917 75.5601 73.3542C76.7709 76.5702 78.8103 79.3187 81.3041 81.0915C84.2811 83.211 87.4525 83.5748 89.7873 82.0646C90.7525 81.4395 91.4026 80.4481 91.8766 79.7245L92.3599 78.9878L92.7788 79.7626C94.6987 83.3148 98.1038 85.2032 101.894 84.8158C106.359 84.3588 110.202 80.9024 111.67 76.0173C111.999 74.8728 112.238 73.7045 112.386 72.5229C114.021 58.8407 103.811 43.9307 91.375 41.8217C87.2174 41.6404 83.5628 42.494 80.5122 44.3575C77.7217 46.0646 75.5011 48.5597 73.9121 51.7836C72.6265 54.389 71.811 57.3818 71.4853 60.5676C71.8962 58.2512 72.6812 56.0172 73.8097 53.953C75.5194 50.8407 77.7978 48.5229 80.5805 47.0613ZM91.5956 70.7567C91.333 73.626 90.4623 75.6588 89.002 76.7974C88.1261 77.4816 87.0546 77.8256 85.807 77.8256C85.4073 77.8243 85.0082 77.7923 84.6133 77.7298L84.5582 77.7179C81.2121 76.8171 78.8852 73.8322 78.3336 69.7324C77.7663 65.5301 79.1846 61.3962 81.7046 59.9175C83.5181 58.8538 85.8385 58.9497 87.7597 60.1684C90.6422 62.0003 92.0408 65.8584 91.5956 70.7567Z" fill="black"/>
<path d="M80.6132 87.6613C84.1589 90.6186 88.7997 92.8537 93.9895 92.8537C95.8054 92.8533 97.6114 92.5843 99.3486 92.0553L100.018 91.8478L99.6336 91.2608C98.3847 89.3527 98.1891 89.0586 97.2567 87.4657L97.0453 87.0967L96.6513 87.228C89.7347 89.4473 82.9258 87.2726 77.9684 81.2595C75.0426 77.7138 73.0676 73.1295 72.4097 68.3652C71.7111 63.3094 72.516 58.5004 74.738 54.4597C76.3466 51.5326 78.4793 49.358 81.0768 47.9936C83.5102 46.7314 86.2663 46.2282 88.9888 46.549C92.4583 46.9351 95.8004 48.5096 98.6566 51.1032C101.711 53.878 103.997 57.6692 105.267 62.0671C107.368 69.3238 106.067 76.7959 103.506 78.6292C102.671 79.2267 101.775 79.1754 100.768 78.4729C99.8161 77.8084 99.7176 76.4886 99.6388 75.4236C99.6296 74.6055 99.6257 73.7637 99.627 72.9286C99.6375 67.0087 99.9356 60.7526 100.488 54.8366L100.54 54.2916L99.9921 54.2641C97.6008 54.1419 95.2646 53.9384 93.0466 53.6587L92.5725 53.5983L92.4688 54.0658C92.3046 54.809 92.1484 55.5655 92.0026 56.3271C89.824 53.0861 86.7262 51.4945 83.3355 51.9279C78.9691 52.4847 75.1937 56.3035 73.9369 61.4289C72.9113 65.618 73.1372 69.8754 74.5935 73.7388C75.8778 77.1531 78.0499 80.0684 80.7117 81.9621C84.0538 84.3403 87.6717 84.7198 90.3742 82.9601C91.2173 82.4151 91.8292 81.6823 92.302 81.0126C94.4885 84.4729 98.0643 86.2798 102.02 85.8714C106.915 85.3711 111.104 81.6232 112.696 76.3245C113.042 75.1202 113.294 73.8908 113.45 72.6475C115.132 58.4374 104.481 42.9522 91.5167 40.7775H91.4537C83.0781 40.4033 76.5082 44.1472 72.9691 51.3225C70.6119 56.1026 69.7636 62.117 70.5791 68.2628C70.6894 69.0971 70.8295 69.9226 70.9993 70.7395C71.9829 75.4972 73.9317 79.9161 76.6277 83.4775C76.759 83.6548 76.8969 83.8307 77.0348 84.0028C77.1726 84.1748 77.325 84.3639 77.4721 84.5399C77.7846 84.9111 78.1138 85.2783 78.4596 85.6416C78.6303 85.8228 78.8054 86.0028 78.9849 86.1814C79.497 86.6874 80.0398 87.1807 80.6132 87.6613ZM73.9159 51.7808C75.5049 48.5582 77.7242 46.0592 80.516 44.3547C83.5666 42.4913 87.2212 41.6377 91.3788 41.8189C103.82 43.9279 114.03 58.8379 112.39 72.5202C112.242 73.7017 112.003 74.87 111.674 76.0146C110.206 80.9049 106.368 84.3613 101.898 84.813C98.1077 85.207 94.7025 83.312 92.7826 79.7598L92.3637 78.985L91.8805 79.7217C91.4064 80.4453 90.7564 81.4368 89.7912 82.0619C87.4563 83.572 84.2849 83.2083 81.3079 81.0888C78.8128 79.316 76.7747 76.5674 75.564 73.3514C74.1838 69.6863 73.9698 65.6442 74.9455 61.6639C76.0984 56.9574 79.5193 53.4578 83.4563 52.9548C86.7931 52.5293 89.8319 54.3757 91.7964 58.0211L92.5161 59.3567L92.7787 57.8649C92.9625 56.8143 93.1727 55.7729 93.3867 54.7473C95.3145 54.9798 97.3263 55.1557 99.3854 55.2726C98.8601 61.0586 98.5804 67.1452 98.5699 72.9154C98.5699 73.7664 98.5699 74.6226 98.583 75.4473V75.4788C98.6658 76.6318 98.7931 78.3678 100.159 79.3291C101.525 80.2904 102.917 80.3297 104.11 79.4775C105.62 78.3967 106.737 75.878 107.165 72.5701C107.611 69.1492 107.296 65.3146 106.269 61.7703C103.665 52.7565 96.9245 46.3704 89.0965 45.4998C86.1654 45.157 83.1988 45.7014 80.5804 47.0625C77.7977 48.5241 75.5193 50.8419 73.8095 53.9515C72.6811 56.0157 71.8961 58.2498 71.4852 60.5661C71.8082 57.379 72.6264 54.3862 73.912 51.7808H73.9159ZM78.281 83.8583C76.8997 82.201 75.7176 80.3873 74.759 78.4545C75.4593 79.6762 76.2605 80.8371 77.1543 81.9253C82.3033 88.1708 89.3578 90.4992 96.566 88.3494C97.2449 89.5011 97.5259 89.945 98.369 91.2385C89.9842 93.421 82.5266 88.9128 78.277 83.8583H78.281Z" fill="white"/>
<path d="M87.7596 60.1693C85.8383 58.9506 83.5179 58.8561 81.7044 59.9185C79.1857 61.3971 77.7661 65.5284 78.3334 69.7307C78.885 73.8305 81.212 76.8219 84.558 77.7162L84.6131 77.728C85.008 77.7906 85.4071 77.8226 85.8068 77.8239C87.0544 77.8239 88.1259 77.4799 89.0018 76.7957C90.4621 75.6558 91.3341 73.623 91.5954 70.755C92.0406 65.8581 90.642 61.9999 87.7596 60.1693ZM90.5488 70.6617C90.3886 72.428 89.8778 74.7825 88.3558 75.971C87.4562 76.6736 86.2546 76.9178 84.8036 76.6972C83.384 76.3032 80.076 74.8443 79.3748 69.5928C78.8692 65.8476 80.0997 62.0774 82.2362 60.8246C83.7083 59.9605 85.6099 60.0498 87.1962 61.057C89.7346 62.6683 90.9572 66.1693 90.5488 70.6617Z" fill="white"/>
</g>
<defs>
<clipPath id="clip0">
<rect width="200" height="132.37" fill="white"/>
</clipPath>
</defs>
</svg>
