<svg width="200" height="133" viewBox="0 0 200 133" fill="none" xmlns="http://www.w3.org/2000/svg">
<path d="M21.7794 88.3257C20.7314 88.8353 19.7941 89.5461 19.0212 90.4175C18.2483 91.2889 17.6548 92.3037 17.2747 93.4042C16.8946 94.5046 16.7353 95.669 16.8059 96.8309C16.8765 97.9928 17.1756 99.1294 17.6862 100.176L22.2758 109.586C22.3533 109.746 22.4373 109.902 22.524 110.055L40.6776 79.1348L21.7794 88.3257Z" fill="#FFCC00"/>
<path d="M178.221 43.6011C180.296 42.5913 181.896 40.8138 182.68 38.6457C183.465 36.4776 183.372 34.0895 182.423 31.9883L174.561 45.3806L178.221 43.6011Z" fill="#FFCC00"/>
<path d="M129.744 96.1068L165.857 113.678C167.973 114.707 170.413 114.855 172.638 114.089C174.864 113.322 176.693 111.704 177.724 109.591L182.32 100.181C182.831 99.1346 183.13 97.9979 183.201 96.836C183.271 95.6741 183.112 94.5097 182.732 93.4093C182.352 92.3089 181.758 91.294 180.985 90.4226C180.212 89.5513 179.275 88.8405 178.227 88.3308L142.018 70.7188C140.971 80.3387 136.636 89.3045 129.744 96.1068Z" fill="black"/>
<path d="M21.7794 43.6007L58.0145 61.2233C59.1268 51.6084 63.5244 42.6703 70.4662 35.9152L34.1432 18.252C32.0265 17.2228 29.5871 17.0754 27.3615 17.8422C25.136 18.6089 23.3066 20.2271 22.2758 22.3406L17.6862 31.7505C16.6554 33.864 16.5076 36.2998 17.2752 38.5221C18.0428 40.7444 19.663 42.5712 21.7794 43.6007Z" fill="black"/>
<path d="M58.0145 61.223C57.6476 64.3768 57.6366 67.5618 57.9816 70.7181L55.0926 72.1199L30.1773 114.567C31.5509 114.58 32.9087 114.274 34.1432 113.672L59.308 101.434L65.6245 90.6813C73.2935 101.363 85.8319 108.32 100 108.32C110.412 108.32 120.458 104.482 128.213 97.5438C135.967 90.6052 140.885 81.053 142.022 70.7181C142.369 67.5619 142.358 64.3767 141.99 61.223L148.113 58.245L171.95 17.638C169.911 17.1109 167.75 17.3285 165.857 18.2517L151.92 25.0298L138.298 48.2319C137.265 46.029 136.043 43.9195 134.645 41.9272L139.441 37.9133C140.192 37.2845 140.662 36.3836 140.748 35.4087C140.833 34.4337 140.528 33.4647 139.898 32.7147C139.269 31.9647 138.366 31.4952 137.39 31.4095C136.414 31.3238 135.443 31.6289 134.692 32.2577L129.896 36.2716C124.28 30.6621 117.195 26.7463 109.453 24.9728C101.711 23.1994 93.6246 23.6401 86.1217 26.2445C78.6187 28.8489 72.0025 33.5116 67.0312 39.6981C62.06 45.8846 58.9351 53.3446 58.0145 61.223ZM137.886 37.082C136.967 37.9933 136.131 38.6818 136.096 38.7106C136.013 38.7776 135.91 38.8142 135.803 38.8142C135.708 38.8138 135.615 38.7841 135.538 38.7292C135.46 38.6743 135.401 38.5968 135.369 38.5073C135.338 38.4179 135.334 38.3207 135.36 38.2292C135.385 38.1377 135.438 38.0562 135.512 37.9959C135.519 37.9894 136.353 37.3062 137.232 36.4289C137.962 35.7012 138.078 34.6456 137.687 34.2561C137.644 34.2131 137.61 34.162 137.587 34.1057C137.564 34.0495 137.552 33.9892 137.552 33.9283C137.552 33.8674 137.564 33.8071 137.587 33.7509C137.61 33.6946 137.644 33.6435 137.687 33.6005C137.731 33.5574 137.782 33.5233 137.838 33.5C137.894 33.4767 137.955 33.4647 138.016 33.4647C138.077 33.4647 138.137 33.4767 138.193 33.5C138.25 33.5233 138.301 33.5574 138.344 33.6005C139.143 34.4095 138.936 36.0342 137.886 37.082ZM100 28.1573C109.957 28.144 119.518 32.0454 126.616 39.0174L126.105 39.4449C119.062 33.5979 110.138 30.493 100.981 30.7032C91.8236 30.9135 83.0519 34.4248 76.2851 40.5889C69.5183 46.753 65.2134 55.1536 64.1651 64.2398C63.1168 73.3259 65.396 82.4839 70.5818 90.023C76.6012 97.4037 85.1827 102.251 94.6188 103.6C104.055 104.95 113.654 102.702 121.506 97.3055C129.358 91.9086 134.888 83.7577 136.994 74.4745C139.101 65.1913 137.631 55.4563 132.876 47.2065L116.646 61.3502C117.407 64.0046 117.52 66.8024 116.975 69.5093C116.431 72.2163 115.245 74.7537 113.517 76.9092C111.789 79.0647 109.57 80.7756 107.044 81.8987C104.518 83.0219 101.759 83.5246 98.9991 83.3649C96.2388 83.2052 93.5569 82.3876 91.1779 80.9806C88.7989 79.5735 86.792 77.618 85.3251 75.2777C83.8581 72.9373 82.9739 70.2801 82.7463 67.5285C82.5188 64.7769 82.9545 62.0109 84.0171 59.4619L78.4636 55.587C78.0657 55.3094 77.7266 54.9563 77.4654 54.5478C77.2042 54.1393 77.0261 53.6835 76.9414 53.2063C76.8566 52.7291 76.8669 52.2399 76.9714 51.7666C77.076 51.2934 77.2729 50.8453 77.5509 50.448C77.8289 50.0508 78.1825 49.7121 78.5916 49.4513C79.0007 49.1905 79.4572 49.0127 79.9351 48.928C80.413 48.8434 80.9029 48.8536 81.3768 48.958C81.8508 49.0625 82.2995 49.2591 82.6973 49.5367L83.2305 49.9091L79.5168 46.2007C79.481 46.1651 79.4526 46.1228 79.4332 46.0762C79.4138 46.0295 79.4038 45.9796 79.4037 45.9291C79.4037 45.8786 79.4135 45.8286 79.4328 45.782C79.4521 45.7353 79.4804 45.6929 79.5161 45.6572C79.5518 45.6215 79.5942 45.5931 79.6409 45.5737C79.6876 45.5544 79.7376 45.5444 79.7881 45.5443C79.8387 45.5442 79.8888 45.5541 79.9355 45.5734C79.9822 45.5926 80.0247 45.6209 80.0604 45.6566L84.2509 49.8409C84.2867 49.8766 84.3152 49.919 84.3346 49.9657C84.354 50.0124 84.364 50.0624 84.364 50.113C84.364 50.1636 84.354 50.2136 84.3346 50.2603C84.3152 50.307 84.2867 50.3494 84.2509 50.3851C84.1983 50.4367 84.1324 50.4726 84.0604 50.4887L88.2535 53.4142C91.2593 50.6409 95.1521 49.0207 99.2407 48.8414C103.329 48.6621 107.349 49.9352 110.587 52.4347L99.7952 61.4669L101.228 62.4661C102.293 62.5048 103.301 62.9543 104.04 63.72C104.78 64.4857 105.193 65.5079 105.194 66.5718V66.5783L131.426 44.6219C137.011 52.7187 139.238 62.6603 137.64 72.3612C136.043 82.0621 130.745 90.7683 122.858 96.6533C114.972 102.538 105.109 105.145 95.3399 103.926C85.5704 102.707 76.6535 97.7568 70.4596 90.1148C70.2784 89.8526 70.1038 89.5903 69.9344 89.328C64.7772 82.6881 61.9839 74.5209 61.9961 66.1181C61.9908 45.1491 79.0086 28.1573 100 28.1573ZM98.1524 37.5698C98.1524 37.0805 98.347 36.6112 98.6935 36.2652C99.04 35.9192 99.51 35.7248 100 35.7248C100.49 35.7248 100.96 35.9192 101.307 36.2652C101.653 36.6112 101.848 37.0805 101.848 37.5698V43.4864C101.848 43.9757 101.653 44.445 101.307 44.791C100.96 45.137 100.49 45.3314 100 45.3314C99.51 45.3314 99.04 45.137 98.6935 44.791C98.347 44.445 98.1524 43.9757 98.1524 43.4864V37.5698ZM71.417 64.2665H77.3474C77.8374 64.2665 78.3074 64.4609 78.6539 64.8069C79.0004 65.1529 79.195 65.6222 79.195 66.1115C79.195 66.6008 79.0004 67.0701 78.6539 67.4161C78.3074 67.7621 77.8374 67.9565 77.3474 67.9565H71.417C70.9269 67.9565 70.457 67.7621 70.1105 67.4161C69.764 67.0701 69.5693 66.6008 69.5693 66.1115C69.5693 65.6222 69.764 65.1529 70.1105 64.8069C70.457 64.4609 70.9269 64.2665 71.417 64.2665ZM84.2509 81.8379C84.2867 81.8735 84.3151 81.9158 84.3345 81.9624C84.3539 82.009 84.3638 82.0589 84.3638 82.1093C84.3638 82.1598 84.3539 82.2097 84.3345 82.2563C84.3151 82.3029 84.2867 82.3452 84.2509 82.3808L80.0604 86.5652C79.9882 86.6371 79.8902 86.6775 79.7881 86.6774C79.6861 86.6773 79.5882 86.6367 79.5161 86.5645C79.444 86.4923 79.4036 86.3945 79.4037 86.2926C79.4038 86.1907 79.4445 86.0929 79.5168 86.021L83.7072 81.8379C83.7428 81.8021 83.7852 81.7738 83.8318 81.7544C83.8785 81.735 83.9285 81.7251 83.979 81.7251C84.0295 81.7251 84.0796 81.735 84.1262 81.7544C84.1729 81.7738 84.2152 81.8021 84.2509 81.8379ZM100 86.8904C100.243 86.8904 100.483 86.9381 100.707 87.0308C100.931 87.1235 101.135 87.2594 101.307 87.4307C101.478 87.6021 101.614 87.8055 101.707 88.0293C101.8 88.2531 101.848 88.4931 101.848 88.7354V94.6532C101.848 94.8955 101.8 95.1354 101.707 95.3593C101.614 95.5831 101.478 95.7865 101.307 95.9578C101.135 96.1292 100.931 96.2651 100.707 96.3578C100.483 96.4505 100.243 96.4982 100 96.4982C99.7574 96.4982 99.5171 96.4505 99.293 96.3578C99.0688 96.2651 98.8651 96.1292 98.6935 95.9578C98.522 95.7865 98.3859 95.5831 98.293 95.3593C98.2002 95.1354 98.1524 94.8955 98.1524 94.6532V88.7354C98.1524 88.4931 98.2002 88.2531 98.293 88.0293C98.3859 87.8055 98.522 87.6021 98.6935 87.4307C98.8651 87.2594 99.0688 87.1235 99.293 87.0308C99.5171 86.9381 99.7574 86.8904 100 86.8904ZM115.749 82.3808C115.682 82.3078 115.646 82.2118 115.648 82.1127C115.65 82.0136 115.69 81.9191 115.76 81.8491C115.831 81.779 115.925 81.7387 116.024 81.7366C116.124 81.7345 116.22 81.7708 116.293 81.8379L120.483 86.021C120.556 86.0929 120.596 86.1907 120.596 86.2926C120.596 86.3945 120.556 86.4923 120.484 86.5645C120.448 86.6002 120.406 86.6286 120.359 86.648C120.313 86.6673 120.262 86.6773 120.212 86.6774C120.11 86.6775 120.012 86.6371 119.94 86.5652L115.749 82.3808ZM122.653 64.2665H128.578C129.068 64.2665 129.538 64.4609 129.884 64.8069C130.231 65.1529 130.426 65.6222 130.426 66.1115C130.426 66.6008 130.231 67.0701 129.884 67.4161C129.538 67.7621 129.068 67.9565 128.578 67.9565H122.653C122.163 67.9565 121.693 67.7621 121.346 67.4161C121 67.0701 120.805 66.6008 120.805 66.1115C120.805 65.6222 121 65.1529 121.346 64.8069C121.693 64.4609 122.163 64.2665 122.653 64.2665Z" fill="#FFCC00"/>
<path d="M61.9908 66.1115C61.9786 74.5144 64.7719 82.6815 69.9291 89.3215C70.1038 89.5838 70.2784 89.846 70.4544 90.1083C76.6482 97.7502 85.5652 102.7 95.3346 103.919C105.104 105.138 114.967 102.532 122.853 96.6468C130.74 90.7618 136.038 82.0556 137.635 72.3547C139.232 62.6538 137.005 52.7121 131.421 44.6154L105.194 66.5783V66.5718C105.193 65.5079 104.78 64.4857 104.04 63.72C103.301 62.9543 102.293 62.5048 101.228 62.4661L102.117 63.0863C102.92 63.647 103.468 64.5033 103.639 65.4671C103.81 66.4308 103.591 67.423 103.03 68.2253C102.468 69.0276 101.611 69.5744 100.645 69.7453C99.6802 69.9162 98.6866 69.6973 97.8831 69.1367L84.0171 59.4619C82.956 62.0103 82.5215 64.7755 82.7499 67.5259C82.9782 70.2764 83.8628 72.9323 85.3297 75.2715C86.7966 77.6107 88.803 79.5651 91.1813 80.9713C93.5595 82.3775 96.2404 83.1947 98.9997 83.3543C101.759 83.514 104.516 83.0116 107.041 81.8892C109.566 80.7667 111.786 79.0568 113.513 76.9025C115.241 74.7482 116.427 72.2121 116.972 69.5064C117.517 66.8007 117.405 64.004 116.646 61.3502L132.876 47.2065C137.636 55.4564 139.11 65.1936 137.004 74.4797C134.899 83.7658 129.369 91.9196 121.514 97.3179C113.66 102.716 104.058 104.963 94.6202 103.611C85.182 102.26 76.5996 97.4082 70.5818 90.023C65.396 82.4839 63.1168 73.3259 64.1651 64.2398C65.2134 55.1536 69.5183 46.753 76.2851 40.5889C83.0519 34.4248 91.8236 30.9135 100.981 30.7032C110.138 30.4929 119.062 33.5979 126.105 39.4449L126.616 39.0174C119.518 32.0454 109.956 28.144 100 28.1573C79.0086 28.1573 61.9908 45.1491 61.9908 66.1115Z" fill="black"/>
<path d="M99.7952 61.4673L110.587 52.4351C107.349 49.9356 103.329 48.6625 99.2407 48.8419C95.1521 49.0212 91.2593 50.6413 88.2535 53.4146L99.7952 61.4673Z" fill="black"/>
<path d="M83.7072 81.8377L79.5167 86.0207C79.481 86.0564 79.4526 86.0987 79.4332 86.1453C79.4138 86.1919 79.4037 86.2419 79.4037 86.2924C79.4036 86.3428 79.4135 86.3928 79.4328 86.4395C79.4521 86.4861 79.4804 86.5285 79.5161 86.5643C79.5518 86.6 79.5942 86.6284 79.6409 86.6477C79.6875 86.6671 79.7376 86.6771 79.7881 86.6772C79.8387 86.6772 79.8887 86.6673 79.9354 86.6481C79.9822 86.6288 80.0246 86.6006 80.0604 86.5649L84.2508 82.3806C84.318 82.3076 84.3543 82.2116 84.3523 82.1125C84.3502 82.0134 84.3098 81.9189 84.2397 81.8489C84.1695 81.7788 84.0749 81.7385 83.9756 81.7364C83.8764 81.7343 83.7802 81.7706 83.7072 81.8377Z" fill="white"/>
<path d="M120.211 86.6764C120.287 86.6757 120.361 86.6527 120.424 86.6104C120.487 86.5681 120.536 86.5082 120.565 86.4383C120.594 86.3685 120.601 86.2916 120.587 86.2173C120.572 86.1431 120.536 86.0747 120.483 86.0207L116.293 81.8377C116.22 81.7706 116.124 81.7343 116.024 81.7364C115.925 81.7385 115.831 81.7788 115.76 81.8489C115.69 81.9189 115.65 82.0134 115.648 82.1125C115.646 82.2116 115.682 82.3076 115.749 82.3806L119.94 86.5649C119.975 86.6004 120.018 86.6286 120.064 86.6477C120.111 86.6668 120.161 86.6766 120.211 86.6764Z" fill="white"/>
<path d="M84.2508 50.3847C84.2867 50.349 84.3151 50.3066 84.3345 50.2599C84.3539 50.2132 84.3639 50.1632 84.3639 50.1126C84.3639 50.0621 84.3539 50.012 84.3345 49.9653C84.3151 49.9186 84.2867 49.8762 84.2508 49.8405L80.0604 45.6562C80.0246 45.6205 79.9822 45.5923 79.9354 45.573C79.8887 45.5538 79.8387 45.5439 79.7881 45.5439C79.7376 45.544 79.6875 45.554 79.6409 45.5734C79.5942 45.5927 79.5518 45.6211 79.5161 45.6568C79.4804 45.6926 79.4521 45.735 79.4328 45.7816C79.4135 45.8283 79.4036 45.8783 79.4037 45.9287C79.4037 45.9792 79.4138 46.0292 79.4332 46.0758C79.4526 46.1224 79.481 46.1647 79.5167 46.2004L83.2305 49.9087L84.0604 50.4883C84.1323 50.4723 84.1983 50.4364 84.2508 50.3847Z" fill="white"/>
<path d="M97.8831 69.1364C98.281 69.414 98.7297 69.6107 99.2036 69.7151C99.6776 69.8195 100.167 69.8297 100.645 69.7451C101.123 69.6605 101.58 69.4827 101.989 69.2219C102.398 68.9611 102.752 68.6224 103.03 68.2251C103.308 67.8278 103.504 67.3798 103.609 66.9065C103.714 66.4332 103.724 65.944 103.639 65.4669C103.554 64.9897 103.376 64.5338 103.115 64.1253C102.854 63.7168 102.515 63.3637 102.117 63.0861L101.228 62.4659L99.7951 61.4667L88.2534 53.414L84.0604 50.4845L83.2305 49.9049L82.6973 49.5325C82.2995 49.2549 81.8508 49.0583 81.3768 48.9539C80.9029 48.8495 80.413 48.8393 79.9351 48.9239C79.4572 49.0085 79.0007 49.1863 78.5916 49.4471C78.1825 49.7079 77.8289 50.0466 77.5509 50.4439C77.2729 50.8412 77.076 51.2892 76.9714 51.7625C76.8668 52.2357 76.8566 52.7249 76.9414 53.2021C77.0261 53.6793 77.2042 54.1352 77.4653 54.5437C77.7265 54.9521 78.0657 55.3053 78.4636 55.5829L84.0171 59.4577L97.8831 69.1364Z" fill="#EF3C24"/>
<path d="M100 45.3322C100.49 45.3322 100.96 45.1378 101.307 44.7918C101.653 44.4458 101.848 43.9765 101.848 43.4872V37.5706C101.848 37.3283 101.8 37.0884 101.707 36.8645C101.614 36.6407 101.478 36.4373 101.307 36.266C101.135 36.0946 100.931 35.9587 100.707 35.866C100.483 35.7733 100.243 35.7256 100 35.7256C99.7574 35.7256 99.5171 35.7733 99.2929 35.866C99.0688 35.9587 98.8651 36.0946 98.6935 36.266C98.5219 36.4373 98.3858 36.6407 98.293 36.8645C98.2001 37.0884 98.1523 37.3283 98.1523 37.5706V43.4872C98.1523 43.9765 98.347 44.4458 98.6935 44.7918C99.04 45.1378 99.51 45.3322 100 45.3322Z" fill="white"/>
<path d="M98.1523 88.7356V94.6535C98.1523 95.1428 98.347 95.6121 98.6935 95.9581C99.04 96.3041 99.51 96.4985 100 96.4985C100.49 96.4985 100.96 96.3041 101.307 95.9581C101.653 95.6121 101.848 95.1428 101.848 94.6535V88.7356C101.848 88.2463 101.653 87.777 101.307 87.431C100.96 87.085 100.49 86.8906 100 86.8906C99.51 86.8906 99.04 87.085 98.6935 87.431C98.347 87.777 98.1523 88.2463 98.1523 88.7356Z" fill="white"/>
<path d="M69.5693 66.1116C69.5693 66.6009 69.764 67.0702 70.1105 67.4162C70.457 67.7622 70.927 67.9566 71.417 67.9566H77.3474C77.8374 67.9566 78.3074 67.7622 78.6539 67.4162C79.0004 67.0702 79.1951 66.6009 79.1951 66.1116C79.1951 65.6223 79.0004 65.153 78.6539 64.807C78.3074 64.461 77.8374 64.2666 77.3474 64.2666H71.417C70.927 64.2666 70.457 64.461 70.1105 64.807C69.764 65.153 69.5693 65.6223 69.5693 66.1116Z" fill="white"/>
<path d="M122.653 67.9566H128.578C129.068 67.9566 129.538 67.7622 129.884 67.4162C130.231 67.0702 130.425 66.6009 130.425 66.1116C130.425 65.6223 130.231 65.153 129.884 64.807C129.538 64.461 129.068 64.2666 128.578 64.2666H122.653C122.163 64.2666 121.693 64.461 121.346 64.807C121 65.153 120.805 65.6223 120.805 66.1116C120.805 66.6009 121 67.0702 121.346 67.4162C121.693 67.7622 122.163 67.9566 122.653 67.9566Z" fill="white"/>
<path d="M137.682 33.6032C137.639 33.6462 137.605 33.6973 137.581 33.7535C137.558 33.8098 137.546 33.8701 137.546 33.931C137.546 33.9919 137.558 34.0522 137.581 34.1085C137.605 34.1648 137.639 34.2159 137.682 34.2589C138.076 34.6522 137.957 35.7013 137.227 36.4317C136.348 37.3089 135.519 37.9921 135.506 37.9987C135.416 38.0775 135.36 38.1882 135.35 38.3075C135.34 38.4268 135.377 38.5453 135.452 38.6381C135.528 38.7308 135.637 38.7905 135.756 38.8045C135.875 38.8186 135.995 38.7859 136.091 38.7133C136.126 38.6845 136.968 37.9961 137.88 37.0847C138.931 36.0357 139.142 34.4123 138.336 33.6058C138.25 33.5192 138.132 33.4702 138.01 33.4697C137.887 33.4692 137.769 33.5172 137.682 33.6032Z" fill="white"/>
</svg>
