<svg width="22" height="13" viewBox="0 0 22 13" fill="none" xmlns="http://www.w3.org/2000/svg">
<path d="M12.3652 12.6C12.8937 12.6 13.1098 12.2376 13.1037 11.7833C13.0768 10.0721 13.7233 9.15086 14.8906 10.3515C16.1819 11.6797 16.4492 12.6 18.0173 12.6H20.7943C21.4955 12.6 21.7715 12.3679 21.7715 12.0037C21.7715 11.2334 20.5383 9.87389 19.4935 8.87592C18.0303 7.47894 17.9618 7.44591 19.2218 5.76417C20.7848 3.67629 22.8294 1.00104 21.0208 1.00104H17.566C16.8961 1.00104 16.8475 1.38934 16.6088 1.96777C15.7454 4.0628 14.1043 6.77643 13.4812 6.36135C12.8295 5.92842 13.128 4.21366 13.1775 1.66516C13.1905 0.992113 13.187 0.530618 12.1873 0.29139C11.6414 0.161957 11.1103 0.108398 10.6174 0.108398C8.64484 0.108398 7.2841 0.959086 8.05733 1.10726C9.42068 1.36881 9.28964 4.4029 8.97201 5.71329C8.41834 7.99488 6.33731 3.90659 5.47036 1.87047C5.26121 1.3813 5.19699 1.00104 4.45066 1.00104H1.62591C1.19894 1.00104 0.942932 1.14386 0.942932 1.46164C0.942932 1.99901 3.51168 7.46019 5.96414 10.1827C8.35586 12.8384 10.7198 12.6 12.3652 12.6Z" fill="#9A9A9A"/>
</svg>
